<svg height='100px' width='100px'  fill="#FFFFFF" xmlns:x="http://ns.adobe.com/Extensibility/1.0/" xmlns:i="http://ns.adobe.com/AdobeIllustrator/10.0/" xmlns:graph="http://ns.adobe.com/Graphs/1.0/" xmlns="http://www.w3.org/2000/svg" xmlns:xlink="http://www.w3.org/1999/xlink" version="1.1" x="0px" y="0px" viewBox="0 0 100 100" enable-background="new 0 0 100 100" xml:space="preserve"><g><g i:extraneous="self"><path d="M50,54.5c16.7,0,32.2-8.5,40.6-22.1c0.7-1.2,0.4-2.7-0.8-3.4c-1.2-0.7-2.7-0.4-3.4,0.8c-0.3,0.4-0.6,0.9-0.9,1.3    C77.8,42.4,64.4,49.5,50,49.5s-27.8-7-35.5-18.4c-0.3-0.4-0.6-0.9-0.9-1.3c-0.7-1.2-2.3-1.5-3.4-0.8c-1.2,0.7-1.5,2.3-0.8,3.4    C17.8,46,33.3,54.5,50,54.5z"></path><path d="M47.5,61.1v7.8c0,1.4,1.1,2.5,2.5,2.5s2.5-1.1,2.5-2.5v-7.8c0-1.4-1.1-2.5-2.5-2.5S47.5,59.7,47.5,61.1z"></path><path d="M62.9,56.9c-1.3,0.4-2.1,1.7-1.8,3.1l2,7.6c0.3,1.1,1.3,1.9,2.4,1.9c0.2,0,0.4,0,0.6-0.1c1.3-0.4,2.1-1.7,1.8-3.1l-2-7.6    C65.6,57.3,64.2,56.6,62.9,56.9z"></path><path d="M74.9,51.9c-1.2,0.7-1.6,2.2-0.9,3.4l3.9,6.8c0.5,0.8,1.3,1.3,2.2,1.3c0.4,0,0.9-0.1,1.2-0.3c1.2-0.7,1.6-2.2,0.9-3.4    l-3.9-6.8C77.6,51.7,76.1,51.2,74.9,51.9z"></path><path d="M88.7,44c-1-1-2.6-1-3.5,0c-1,1-1,2.6,0,3.5l5.5,5.5c0.5,0.5,1.1,0.7,1.8,0.7s1.3-0.2,1.8-0.7c1-1,1-2.6,0-3.5L88.7,44z"></path><path d="M34.1,58.7l-2,7.6c-0.4,1.3,0.4,2.7,1.8,3.1c0.2,0.1,0.4,0.1,0.6,0.1c1.1,0,2.1-0.7,2.4-1.9l2-7.6    c0.4-1.3-0.4-2.7-1.8-3.1C35.8,56.6,34.4,57.3,34.1,58.7z"></path><path d="M21.7,52.9l-3.9,6.8c-0.7,1.2-0.3,2.7,0.9,3.4c0.4,0.2,0.8,0.3,1.2,0.3c0.9,0,1.7-0.4,2.2-1.3l3.9-6.8    c0.7-1.2,0.3-2.7-0.9-3.4C23.9,51.2,22.4,51.7,21.7,52.9z"></path><path d="M14.8,44c-1-1-2.6-1-3.5,0l-5.5,5.5c-1,1-1,2.6,0,3.5c0.5,0.5,1.1,0.7,1.8,0.7s1.3-0.2,1.8-0.7l5.5-5.5    C15.8,46.6,15.8,45,14.8,44z"></path></g></g></svg>