<svg height='100px' width='100px'  fill="#FFFFFF" xmlns="http://www.w3.org/2000/svg" xmlns:xlink="http://www.w3.org/1999/xlink" version="1.1" x="0px" y="0px" viewBox="0 0 200 200" style="enable-background:new 0 0 200 200;" xml:space="preserve"><g><path d="M159.6,98.5c-13-21.7-33.7-37.2-59.6-37.8c-25.9,0.6-46.6,16.1-59.6,37.8c-0.5,0.9-0.5,2.1,0,3   c12.7,21.3,33.9,37.8,59.6,37.8s46.9-16.5,59.6-37.8C160.1,100.6,160.1,99.4,159.6,98.5z M143.5,113.4c-3.7,4-7.8,7.5-12.4,10.5   c-9.3,6.1-20,9.5-31.1,9.5c-10.6,0-21-3.2-30-8.8c-4.6-2.9-8.8-6.3-12.6-10.2c-2.9-3-9.9-9.2-10.4-13.3c-1-8.4,15.6-20.9,21.8-25   c9.4-6.1,19.9-9.3,31.1-9.5c10.7,0.3,20.9,3.1,30,8.8c6.4,4,23,16.2,23,24.6C153,104.2,146.2,110.6,143.5,113.4z"></path><ellipse cx="100" cy="98.7" rx="19" ry="19.5"></ellipse></g></svg>