<svg width="273" height="169" viewBox="0 0 273 169" fill="none" xmlns="http://www.w3.org/2000/svg">
<path d="M107.02 96.9465C112.514 102.939 120.877 105.648 129.114 103.629L129.163 107.162L118.954 121.571H154.925L144.716 107.162L144.766 103.603C152.969 105.662 161.418 103.013 166.98 96.9465C185.034 97.3691 201.544 88.0685 210.697 72.9986H142.276V74.7321C141.182 69.5234 141.679 64.6338 136.94 64.4293C132.382 64.6264 132.669 69.1581 131.724 74.1384V72.9986H63.303C72.4492 88.0579 88.9537 97.3693 107.02 96.9465Z" fill="#20BF6B"/>
<path d="M88.1814 46.8H75.0814L72.9814 53H64.0314L76.7314 17.9H86.6314L99.3314 53H90.2814L88.1814 46.8ZM85.9814 40.2L81.6314 27.35L77.3314 40.2H85.9814ZM114.747 45L120.797 25.1H129.897L119.997 53H109.447L99.5467 25.1H108.697L114.747 45ZM136.796 22.2C135.296 22.2 134.062 21.7667 133.096 20.9C132.162 20 131.696 18.9 131.696 17.6C131.696 16.2667 132.162 15.1667 133.096 14.3C134.062 13.4 135.296 12.95 136.796 12.95C138.262 12.95 139.462 13.4 140.396 14.3C141.362 15.1667 141.846 16.2667 141.846 17.6C141.846 18.9 141.362 20 140.396 20.9C139.462 21.7667 138.262 22.2 136.796 22.2ZM141.046 25.1V53H132.496V25.1H141.046ZM144.542 39C144.542 36.1333 145.075 33.6167 146.142 31.45C147.242 29.2833 148.725 27.6167 150.592 26.45C152.458 25.2833 154.542 24.7 156.842 24.7C158.808 24.7 160.525 25.1 161.992 25.9C163.492 26.7 164.642 27.75 165.442 29.05V25.1H173.992V53H165.442V49.05C164.608 50.35 163.442 51.4 161.942 52.2C160.475 53 158.758 53.4 156.792 53.4C154.525 53.4 152.458 52.8167 150.592 51.65C148.725 50.45 147.242 48.7667 146.142 46.6C145.075 44.4 144.542 41.8667 144.542 39ZM165.442 39.05C165.442 36.9167 164.842 35.2333 163.642 34C162.475 32.7667 161.042 32.15 159.342 32.15C157.642 32.15 156.192 32.7667 154.992 34C153.825 35.2 153.242 36.8667 153.242 39C153.242 41.1333 153.825 42.8333 154.992 44.1C156.192 45.3333 157.642 45.95 159.342 45.95C161.042 45.95 162.475 45.3333 163.642 44.1C164.842 42.8667 165.442 41.1833 165.442 39.05ZM196.177 24.8C199.444 24.8 202.044 25.8667 203.977 28C205.944 30.1 206.927 33 206.927 36.7V53H198.427V37.85C198.427 35.9833 197.944 34.5333 196.977 33.5C196.01 32.4667 194.71 31.95 193.077 31.95C191.444 31.95 190.144 32.4667 189.177 33.5C188.21 34.5333 187.727 35.9833 187.727 37.85V53H179.177V25.1H187.727V28.8C188.594 27.5667 189.76 26.6 191.227 25.9C192.694 25.1667 194.344 24.8 196.177 24.8Z" fill="black"/>
</svg>
